<svg width="20" height="20" viewBox="0 0 20 20" fill="none" xmlns="http://www.w3.org/2000/svg">
<rect width="20" height="20" fill="#1E1E1E"/>
<g id="Main Page All">
<g id="Burger Menu">
<g id="Main Page 480 menu" clip-path="url(#clip0_0_1)">
<rect width="480" height="1065" transform="translate(-380 -20)" fill="white"/>
<g id="Header 480">
<g id="Group 82">
<g id="Group 81">
<g id="Frame 68">
<g id="Frame 67">
<g id="icon">
<g id="icon_2">
<path fill-rule="evenodd" clip-rule="evenodd" d="M9 14C11.7614 14 14 11.5376 14 8.5C14 5.46243 11.7614 3 9 3C6.23858 3 4 5.46243 4 8.5C4 11.5376 6.23858 14 9 14ZM9 11.8C7.34315 11.8 6 10.3225 6 8.5C6 6.67746 7.34315 5.2 9 5.2C10.6569 5.2 12 6.67746 12 8.5C12 10.3225 10.6569 11.8 9 11.8Z" fill="#151618"/>
<path fill-rule="evenodd" clip-rule="evenodd" d="M16.1029 16.1087C15.2604 15.2634 13.957 15.0811 12.9161 15.6987C12.7257 15.8117 12.5581 15.9151 12.4036 16.0105C11.9937 16.2635 11.6755 16.4598 11.2654 16.6283C10.75 16.8401 10.0835 17 9 17C7.92682 17 7.24926 16.8491 6.72609 16.6447C6.26355 16.464 5.89822 16.237 5.41685 15.9378C5.32296 15.8795 5.22448 15.8183 5.12019 15.7543C4.07587 15.1132 2.73464 15.2622 1.86415 16.1419C1.48443 16.5256 1.04036 17.0219 0.6849 17.5626C0.346032 18.0781 0 18.7638 0 19.5V22.0003C0 23.6574 1.34334 25 3 25H15C16.6567 25 18 23.6574 18 22.0003V19.5C18 18.7541 17.6447 18.0592 17.2996 17.5391C16.937 16.9927 16.4852 16.4923 16.1029 16.1087ZM13.9367 17.4187C14.1759 17.2768 14.478 17.3116 14.6863 17.5205C15.0214 17.8568 15.3724 18.2521 15.6331 18.645C15.9113 19.0642 16 19.352 16 19.5V22.0003C16 22.5524 15.5525 23 15 23H3C2.44752 23 2 22.5524 2 22.0003V19.5C2 19.3549 2.08549 19.0729 2.35613 18.6613C2.61017 18.2748 2.95358 17.8844 3.28579 17.5487C3.49412 17.3381 3.81106 17.2974 4.07389 17.4588C4.15661 17.5095 4.24087 17.5621 4.32694 17.6159C4.80938 17.9171 5.34918 18.254 5.99836 18.5076C6.79304 18.8181 7.72419 19 9 19C10.3002 19 11.2313 18.8046 12.0254 18.4783C12.6006 18.242 13.1079 17.9282 13.5558 17.6512C13.6879 17.5695 13.8148 17.491 13.9367 17.4187Z" fill="#151618"/>
</g>
</g>
</g>
</g>
</g>
</g>
</g>
<path id="Rectangle 104" d="M-379 -20H101V1045H-379V-20Z" fill="black" fill-opacity="0.5"/>
</g>
<g id="Burger Menu_2">
<rect id="Rectangle 101" x="-320" y="-20" width="360" height="691" fill="white"/>
<path id="icon_3" d="M0.553438 0.553437C-0.184479 1.29135 -0.184479 2.48775 0.55344 3.22567L7.32778 10L0.553436 16.7743C-0.184481 17.5123 -0.18448 18.7086 0.553437 19.4466C1.29136 20.1845 2.48776 20.1845 3.22567 19.4466L10 12.6722L16.7743 19.4465C17.5122 20.1845 18.7086 20.1845 19.4466 19.4465C20.1845 18.7086 20.1845 17.5122 19.4466 16.7743L12.6722 10L19.4466 3.2257C20.1845 2.48778 20.1845 1.29138 19.4466 0.553464C18.7086 -0.184451 17.5122 -0.184451 16.7743 0.553466L10 7.32777L3.22567 0.553437C2.48775 -0.18448 1.29136 -0.18448 0.553438 0.553437Z" fill="#754E29"/>
</g>
</g>
</g>
<defs>
<clipPath id="clip0_0_1">
<rect width="480" height="1065" fill="white" transform="translate(-380 -20)"/>
</clipPath>
</defs>
</svg>
